HIERARCHY
ROOT Hips
{
	OFFSET 0.000000 0.000000 0.000000 
	CHANNELS 6 Xposition Yposition Zposition Yrotation Zrotation Xrotation 
	JOINT Lumbar
	{
		OFFSET 0.000000 0.000000 0.000000 
		CHANNELS 3 Zrotation Xrotation Yrotation
		JOINT Neck
		{
			OFFSET 0.000000 0.445665 0.000000 
			CHANNELS 3 Zrotation Xrotation Yrotation
			End Site
			{
				OFFSET 0.000000 0.227535 0.000000 
			}
		}
		JOINT RightShoulder
		{
			OFFSET 0.019635 0.377685 0.194865 
			CHANNELS 3 Zrotation Xrotation Yrotation
			JOINT RightElbow
			{
				OFFSET 0.000000 -0.243375 0.000000 
				CHANNELS 2 Zrotation Yrotation
				JOINT RightWrist
				{
					OFFSET 0.000000 -0.264825 0.000000 
					CHANNELS 2 Zrotation Xrotation
					End Site
					{
						OFFSET 0.006600 -0.176220 0.000990 
					}
				}
			}
		}
		JOINT LeftShoulder
		{
			OFFSET 0.019635 0.377685 -0.194865 
			CHANNELS 3 Zrotation Xrotation Yrotation
			JOINT LeftElbow
			{
				OFFSET 0.000000 -0.243375 0.000000 
				CHANNELS 2 Zrotation Yrotation
				JOINT LeftWrist
				{
					OFFSET 0.000000 -0.264825 0.000000 
					CHANNELS 2 Zrotation Xrotation
					End Site
					{
						OFFSET 0.006600 -0.176220 -0.000990 
					}
				}
			}
		}
	}
	JOINT RightHip
	{
		OFFSET 0.052140 -0.069960 0.075570 
		CHANNELS 3 Zrotation Xrotation Yrotation
		JOINT RightKnee
		{
			OFFSET 0.000000 -0.402270 0.000000 
			CHANNELS 1 Zrotation
			JOINT RightAnkle
			{
				OFFSET 0.000000 -0.404085 0.000000 
				CHANNELS 3 Zrotation Xrotation Yrotation
				End Site
				{
					OFFSET 0.204105 -0.089430 0.008415 
				}
			}
		}
	}
	JOINT LeftHip
	{
		OFFSET 0.052140 -0.069960 -0.075570 
		CHANNELS 3 Zrotation Xrotation Yrotation
		JOINT LeftKnee
		{
			OFFSET 0.000000 -0.402270 0.000000 
			CHANNELS 1 Zrotation
			JOINT LeftAnkle
			{
				OFFSET 0.000000 -0.404085 0.000000 
				CHANNELS 3 Zrotation Xrotation Yrotation
				End Site
				{
					OFFSET 0.204105 -0.089430 -0.008415 
				}
			}
		}
	}
}
MOTION
Frames: 22
Frame Time: 0.02
0.0007 -1e-05 -0.00029 -181.29757 -40.83477 -3.38519 50.13948 2.96584 -0.71716 -14.89527 -1.43431 -0.13622 28.54829 -102.72526 64.17117 9.36202 87.92154 6.12546 -1.24116 4.12315 109.92652 -60.12285 9.2189 -82.66192 3.84836 2.62095 46.05075 -3.11507 -4.61838 -21.71081 -7.38571 -4.21742 -2.92149 49.56115 9.09048 0.91109 -27.03388 -7.17788 3.45103 2.4952
0.00055 -1e-05 -0.00026 -181.22985 -40.58755 -3.35758 49.89961 2.94947 -0.75473 -14.91228 -1.44374 -0.13795 28.57554 -102.70255 64.17117 9.3579 87.91864 6.1318 -1.24434 4.08404 109.85489 -60.06941 9.21907 -82.66863 3.84397 2.61932 45.74149 -3.18024 -4.9171 -21.689 -7.36765 -4.18977 -2.90308 49.27557 9.07983 0.91452 -27.01657 -7.17369 3.44943 2.49203
0.00041 -1e-05 -0.00024 -181.16243 -40.3414 -3.33008 49.66079 2.93316 -0.79214 -14.92924 -1.45313 -0.13968 28.60267 -102.6799 64.17117 9.3538 87.91574 6.13808 -1.24749 4.04508 109.78338 -60.01586 9.21925 -82.67532 3.83957 2.61762 45.43354 -3.24512 -5.21451 -21.66729 -7.34968 -4.16225 -2.88476 48.99119 9.06919 0.91777 -26.99933 -7.16952 3.44786 2.48888
0.00027 -1e-05 -0.00021 -181.09494 -40.095 -3.30255 49.42172 2.91684 -0.82959 -14.9462 -1.46253 -0.14141 28.62982 -102.65726 64.17117 9.34969 87.91284 6.14439 -1.25065 4.0061 109.71196 -59.96253 9.21942 -82.68201 3.83519 2.61598 45.12531 -3.31007 -5.51224 -21.64555 -7.33168 -4.1347 -2.86641 48.70655 9.05857 0.92116 -26.98208 -7.16535 3.44627 2.48573
0.00013 -1e-05 -0.00019 -181.02712 -39.84739 -3.2749 49.18145 2.90044 -0.86722 -14.96322 -1.47197 -0.14314 28.6571 -102.63457 64.17117 9.34556 87.90994 6.15077 -1.25383 3.96694 109.64045 -59.90943 9.21956 -82.6887 3.83082 2.61442 44.8156 -3.37533 -5.81144 -21.62372 -7.3136 -4.10702 -2.84797 48.42056 9.04798 0.92478 -26.96474 -7.16114 3.44464 2.48254
-1e-05 -1e-05 -0.00016 -180.96052 -39.60428 -3.2477 48.94568 2.88434 -0.90415 -14.98006 -1.48124 -0.14486 28.68393 -102.61199 64.17118 9.34153 87.90706 6.15685 -1.25694 3.92839 109.56895 -59.85497 9.21982 -82.69541 3.82637 2.61245 44.51136 -3.43945 -6.10507 -21.60226 -7.29584 -4.07982 -2.82987 48.13958 9.03723 0.92727 -26.94771 -7.15704 3.44319 2.47947
-0.00016 -1e-05 -0.00014 -180.89156 -39.35249 -3.21964 48.70121 2.86767 -0.94244 -14.99724 -1.49085 -0.1466 28.7116 -102.58921 64.17118 9.33731 87.90413 6.16351 -1.26019 3.88869 109.49752 -59.80323 9.21985 -82.70207 3.82209 2.61129 44.19656 -3.50576 -6.40951 -21.58007 -7.27747 -4.05168 -2.81111 47.84892 9.02679 0.93202 -26.9301 -7.15275 3.44139 2.47616
-0.0003 -1e-05 -0.00011 -180.82473 -39.10853 -3.19236 48.46459 2.8515 -0.97951 -15.01409 -1.50015 -0.14832 28.73856 -102.56662 64.17118 9.33325 87.90125 6.16967 -1.26331 3.85002 109.42604 -59.74913 9.22009 -82.70879 3.81765 2.60942 43.89129 -3.57008 -6.70415 -21.55854 -7.25965 -4.02441 -2.79296 47.567 9.01608 0.93473 -26.913 -7.14863 3.4399 2.47308
-0.00044 -1e-05 -8e-05 -180.76071 -38.87477 -3.16609 48.2382 2.83602 -1.01497 -15.03062 -1.50904 -0.15002 28.7644 -102.54426 64.17118 9.32943 87.89843 6.1751 -1.26625 3.8127 109.35437 -59.69146 9.2206 -82.71554 3.81301 2.60655 43.59842 -3.63186 -6.98618 -21.53787 -7.24251 -3.99822 -2.77558 47.29645 9.00497 0.93474 -26.89658 -7.14474 3.43884 2.47029
-0.00058 -1e-05 -6e-05 -180.68114 -38.58421 -3.13416 47.95489 2.8168 -1.05934 -15.04922 -1.52021 -0.15184 28.79594 -102.52057 64.17119 9.32436 87.89525 6.18437 -1.27018 3.76789 109.28339 -59.65229 9.21961 -82.72199 3.8095 2.609 43.23648 -3.70794 -7.33887 -21.51243 -7.22149 -3.96587 -2.75383 46.96254 8.99597 0.94965 -26.87642 -7.13958 3.43546 2.46585
-0.00072 -1e-05 -3e-05 -180.63398 -38.41226 -3.11407 47.79042 2.80535 -1.08514 -15.06334 -1.52662 -0.15341 28.81591 -102.49968 64.17118 9.32184 87.89284 6.18576 -1.27204 3.73871 109.21122 -59.57544 9.22172 -82.72916 3.80363 2.6005 43.01878 -3.75407 -7.54371 -21.49693 -7.20862 -3.94645 -2.74123 46.76098 8.98262 0.93354 -26.86406 -7.13706 3.43689 2.46484
-0.00083 -1e-05 1e-05 -180.67973 -38.57882 -3.12764 47.96532 2.81647 -1.05751 -15.066 -1.51945 -0.15428 28.80006 -102.48652 64.17111 9.32717 87.89247 6.16334 -1.26812 3.75433 109.13349 -59.38261 9.23291 -82.73752 3.79099 2.55932 43.21264 -3.71544 -7.32898 -21.5099 -7.21872 -3.96337 -2.75448 46.93686 8.95635 0.82792 -26.87398 -7.14213 3.45224 2.4737
-0.00094 -1e-05 5e-05 -180.75725 -38.86191 -3.15287 48.25694 2.83516 -1.0117 -15.06403 -1.50761 -0.15488 28.77333 -102.47615 64.17103 9.33491 87.89288 6.13337 -1.26214 3.78536 109.05494 -59.15414 9.2471 -82.74673 3.77602 2.50756 43.54822 -3.64727 -6.96863 -21.53262 -7.23688 -3.99308 -2.77673 47.2428 8.92589 0.69195 -26.89157 -7.1498 3.47229 2.4859
-0.00105 -1e-05 8e-05 -180.81766 -39.08339 -3.17201 48.48669 2.84957 -0.9758 -15.06364 -1.49823 -0.1556 28.75423 -102.46447 64.17097 9.34098 87.89298 6.10832 -1.2572 3.80804 108.9783 -58.95037 9.25953 -82.75609 3.76233 2.46239 43.80889 -3.59421 -6.6836 -21.55013 -7.25099 -4.01644 -2.79437 47.48014 8.89798 0.57272 -26.90509 -7.15608 3.48971 2.49627
-0.00116 -1e-05 0.00012 -180.8895 -39.3423 -3.19458 48.75459 2.86755 -0.93287 -15.0654 -1.48736 -0.15634 28.72382 -102.45299 64.17088 9.34946 87.89288 6.07709 -1.25183 3.83619 108.89532 -58.71116 9.27361 -82.76329 3.74778 2.40988 44.11498 -3.53373 -6.35852 -21.571 -7.26683 -4.04224 -2.81431 47.7586 8.86733 0.44102 -26.92113 -7.16324 3.50919 2.50797
-0.00127 -1e-05 0.00016 -180.94494 -39.55002 -3.2127 48.96988 2.87987 -0.90032 -15.06163 -1.47855 -0.15696 28.71433 -102.44173 64.17083 9.3535 87.89339 6.05678 -1.24683 3.8569 108.82519 -58.53666 9.28499 -82.77506 3.73436 2.36989 44.35907 -3.482 -6.08381 -21.58713 -7.28086 -4.0658 -2.83149 47.98128 8.84139 0.32807 -26.93369 -7.16918 3.52554 2.5177
-0.00135 -1e-05 0.00015 -180.94836 -39.59529 -3.21618 49.01867 2.87481 -0.90036 -15.04337 -1.47608 -0.15756 28.76601 -102.43069 64.17088 9.34469 87.89537 6.07011 -1.24387 3.85069 108.79213 -58.55524 9.28815 -82.80025 3.72581 2.36958 44.40605 -3.45916 -5.97106 -21.58821 -7.28893 -4.0817 -2.83963 48.02646 8.82967 0.2747 -26.93517 -7.1711 3.53184 2.52114
-0.00143 -1e-05 0.00014 -180.93408 -39.58408 -3.21471 49.00956 2.86379 -0.91148 -15.01977 -1.47592 -0.15801 28.83906 -102.41973 64.17096 9.33136 87.89794 6.0944 -1.24128 3.83694 108.77176 -58.63892 9.28852 -82.82981 3.71828 2.38179 44.38463 -3.4465 -5.91593 -21.58414 -7.29475 -4.09463 -2.84454 48.00994 8.82285 0.24133 -26.93284 -7.17168 3.53486 2.5225
-0.00151 -1e-05 0.00013 -180.92705 -39.5932 -3.21511 49.02153 2.85538 -0.91795 -14.99883 -1.47508 -0.15835 28.90178 -102.40854 64.17103 9.32009 87.90028 6.11254 -1.23817 3.82834 108.74467 -58.68937 9.29019 -82.8567 3.70951 2.38663 44.38801 -3.43095 -5.84352 -21.58211 -7.30091 -4.10777 -2.85034 48.01544 8.81362 0.19839 -26.93195 -7.17287 3.53958 2.52488
-0.00159 -1e-05 0.00012 -180.92396 -39.62692 -3.21733 49.05772 2.84754 -0.92246 -14.97673 -1.47263 -0.15937 28.96645 -102.39828 64.17111 9.30881 87.90253 6.13523 -1.2364 3.813 108.7216 -58.75484 9.29182 -82.8865 3.70387 2.39816 44.42053 -3.4075 -5.73062 -21.58157 -7.31009 -4.12598 -2.85881 48.04866 8.80485 0.15581 -26.93245 -7.17416 3.54366 2.52711
-0.00167 -1e-05 0.00011 -180.90867 -39.59695 -3.21467 49.03066 2.83714 -0.93355 -14.95585 -1.47401 -0.159 29.03261 -102.38607 64.17117 9.29653 87.90506 6.1513 -1.23205 3.80971 108.69315 -58.80386 9.29287 -82.9113 3.69209 2.39891 44.37723 -3.40275 -5.7149 -21.57672 -7.3125 -4.13299 -2.86096 48.0106 8.79657 0.11836 -26.92919 -7.17487 3.54815 2.52907
-0.00172 -1e-05 9e-05 -180.85848 -39.38219 -3.19765 48.82049 2.81987 -0.96339 -14.93962 -1.48662 -0.15454 29.0948 -102.36818 64.17112 9.28188 87.90849 6.14513 -1.21982 3.8418 108.64703 -58.8004 9.2927 -82.92098 3.66226 2.36638 44.11415 -3.45212 -5.97764 -21.55982 -7.29543 -4.10771 -2.84539 47.76528 8.78635 0.08383 -26.91499 -7.17433 3.55532 2.53119
